<svg width="26" height="26" viewBox="0 0 26 26" fill="none" xmlns="http://www.w3.org/2000/svg">
<path d="M25.2536 13C25.2536 12.8209 25.2497 12.6427 25.2421 12.4655L24.9923 12.4762C24.9772 12.1243 24.947 11.7764 24.9022 11.4331L25.1501 11.4008C25.1038 11.045 25.0421 10.6939 24.9659 10.3484L24.7218 10.4022C24.6462 10.0595 24.5559 9.72228 24.4517 9.39126L24.6902 9.3162C24.5827 8.97471 24.4607 8.63967 24.3248 8.31183L24.0939 8.40753C23.9598 8.08396 23.812 7.76753 23.6511 7.45897L23.8728 7.34342C23.7077 7.02668 23.5292 6.71808 23.338 6.41837L23.1273 6.55282C22.9393 6.25812 22.7388 5.97218 22.5265 5.69574L22.7248 5.54349C22.5076 5.26069 22.2784 4.98765 22.0379 4.72515L21.8536 4.89402C21.6178 4.63663 21.3709 4.38957 21.1137 4.15359L21.2827 3.96938C21.0204 3.72868 20.7475 3.49927 20.4649 3.28192L20.3125 3.48009C20.0362 3.26762 19.7504 3.06691 19.4558 2.87872L19.5904 2.66805C19.2908 2.47664 18.9823 2.29792 18.6657 2.13263L18.55 2.35425C18.2416 2.19322 17.9252 2.04522 17.6017 1.91097L17.6976 1.68007C17.3698 1.54404 17.0348 1.42184 16.6933 1.3142L16.6182 1.55263C16.2872 1.44829 15.95 1.35792 15.6073 1.28221L15.6612 1.0381C15.3157 0.961759 14.9647 0.900027 14.6089 0.853581L14.5765 1.10148C14.2332 1.05666 13.8853 1.02637 13.5334 1.01124L13.5442 0.76147C13.3669 0.753849 13.1887 0.75 13.0096 0.75C12.8305 0.75 12.6523 0.753849 12.475 0.76147L12.4858 1.01124C12.1339 1.02637 11.786 1.05666 11.4427 1.10148L11.4103 0.853581C11.0545 0.900027 10.7035 0.961758 10.3579 1.0381L10.4119 1.28221C10.0692 1.35792 9.732 1.44829 9.40101 1.55263L9.32585 1.3142C8.98441 1.42184 8.64943 1.54404 8.32164 1.68007L8.41747 1.91097C8.09398 2.04522 7.77764 2.19322 7.46916 2.35425L7.35347 2.13263C7.03685 2.29792 6.72836 2.47664 6.42876 2.66805L6.56336 2.87872C6.26879 3.06691 5.98299 3.26762 5.7067 3.48009L5.5543 3.28192C5.27167 3.49927 4.99881 3.72868 4.73646 3.96938L4.90548 4.15359C4.64828 4.38957 4.4014 4.63664 4.1656 4.89402L3.98127 4.72515C3.74077 4.98766 3.51157 5.26069 3.29441 5.54349L3.4927 5.69574C3.28043 5.97218 3.07993 6.25812 2.89193 6.55282L2.68117 6.41837C2.48998 6.71808 2.31146 7.02668 2.14637 7.34342L2.36806 7.45897C2.20722 7.76753 2.0594 8.08396 1.92533 8.40753L1.69437 8.31183C1.55852 8.63967 1.43648 8.97471 1.32899 9.3162L1.56746 9.39126C1.46326 9.72229 1.37302 10.0595 1.29742 10.4022L1.05329 10.3484C0.977063 10.6939 0.915424 11.045 0.869048 11.4008L1.11695 11.4331C1.0722 11.7764 1.04195 12.1243 1.02685 12.4762L0.777077 12.4655C0.769468 12.6427 0.765625 12.8209 0.765625 13C0.765625 13.1791 0.769468 13.3573 0.777077 13.5345L1.02685 13.5238C1.04195 13.8757 1.0722 14.2236 1.11695 14.5669L0.869048 14.5992C0.915424 14.955 0.977063 15.3061 1.05329 15.6516L1.29742 15.5978C1.37302 15.9405 1.46326 16.2777 1.56746 16.6087L1.32899 16.6838C1.43649 17.0253 1.55852 17.3603 1.69437 17.6882L1.92533 17.5925C2.0594 17.916 2.20722 18.2325 2.36806 18.541L2.14637 18.6566C2.31146 18.9733 2.48998 19.2819 2.68117 19.5816L2.89193 19.4472C3.07993 19.7419 3.28043 20.0278 3.4927 20.3043L3.29442 20.4565C3.51157 20.7393 3.74077 21.0123 3.98127 21.2749L4.16561 21.106C4.4014 21.3634 4.64828 21.6104 4.90548 21.8464L4.73647 22.0306C4.99881 22.2713 5.27167 22.5007 5.5543 22.7181L5.7067 22.5199C5.98299 22.7324 6.26879 22.9331 6.56336 23.1213L6.42876 23.332C6.72836 23.5234 7.03685 23.7021 7.35347 23.8674L7.46916 23.6457C7.77764 23.8068 8.09398 23.9548 8.41747 24.089L8.32164 24.3199C8.64943 24.456 8.98441 24.5782 9.32585 24.6858L9.40101 24.4474C9.732 24.5517 10.0692 24.6421 10.4119 24.7178L10.3579 24.9619C10.7035 25.0382 11.0545 25.1 11.4103 25.1464L11.4427 24.8985C11.786 24.9433 12.1339 24.9736 12.4858 24.9888L12.475 25.2385C12.6523 25.2462 12.8305 25.25 13.0096 25.25C13.1887 25.25 13.3669 25.2462 13.5442 25.2385L13.5334 24.9888C13.8853 24.9736 14.2332 24.9433 14.5765 24.8985L14.6089 25.1464C14.9647 25.1 15.3157 25.0382 15.6612 24.9619L15.6073 24.7178C15.95 24.6421 16.2872 24.5517 16.6182 24.4474L16.6933 24.6858C17.0348 24.5782 17.3698 24.456 17.6976 24.3199L17.6017 24.089C17.9252 23.9548 18.2416 23.8068 18.55 23.6457L18.6657 23.8674C18.9823 23.7021 19.2908 23.5234 19.5904 23.332L19.4558 23.1213C19.7504 22.9331 20.0362 22.7324 20.3125 22.5199L20.4649 22.7181C20.7475 22.5007 21.0204 22.2713 21.2827 22.0306L21.1137 21.8464C21.3709 21.6104 21.6178 21.3634 21.8536 21.106L22.0379 21.2749C22.2784 21.0123 22.5076 20.7393 22.7248 20.4565L22.5265 20.3043C22.7388 20.0278 22.9393 19.7419 23.1273 19.4472L23.338 19.5816C23.5292 19.2819 23.7077 18.9733 23.8728 18.6566L23.6511 18.541C23.812 18.2325 23.9598 17.916 24.0939 17.5925L24.3248 17.6882C24.4607 17.3603 24.5827 17.0253 24.6902 16.6838L24.4517 16.6087C24.5559 16.2777 24.6462 15.9405 24.7218 15.5978L24.9659 15.6516C25.0421 15.3061 25.1038 14.955 25.1501 14.5992L24.9022 14.5669C24.947 14.2236 24.9772 13.8757 24.9923 13.5238L25.2421 13.5345C25.2497 13.3573 25.2536 13.1791 25.2536 13Z" stroke="white" stroke-width="0.5" stroke-dasharray="1 1"/>
<path d="M13.2656 1L13.2656 0.75L13.0156 0.75C6.24316 0.75 0.751789 6.22497 0.751789 12.9802L0.751789 13.2302L1.00179 13.2302L13.0156 13.2302L13.2656 13.2302L13.2656 12.9802L13.2656 1Z" fill="white" stroke="white" stroke-width="0.5"/>
<circle cx="9.11672" cy="4.13088" r="0.48" fill="#303860"/>
</svg>
