<svg width="35" height="10" viewBox="0 0 35 10" fill="none" xmlns="http://www.w3.org/2000/svg">
<path d="M0.713047 6.37125V7.46125H1.46305C3.15305 7.46125 4.26305 7.41125 5.50305 7.18125L5.37305 6.11125C4.17305 6.33125 3.10305 6.37125 1.46305 6.37125H0.713047ZM0.713047 1.23125V6.78125H2.04305V2.29125H4.90305V1.23125H0.713047ZM6.72305 0.41125V9.70125H8.05305V0.41125H6.72305ZM4.45305 3.60125V4.68125H7.28305V3.60125H4.45305ZM9.48227 7.52125V8.60125H17.8623V7.52125H9.48227ZM12.9923 5.54125V7.78125H14.3223V5.54125H12.9923ZM10.3623 1.00125V5.82125H16.9523V1.00125H15.6323V2.42125H11.6823V1.00125H10.3623ZM11.6823 3.46125H15.6323V4.76125H11.6823V3.46125ZM25.0515 0.41125V9.67125H26.3915V0.41125H25.0515ZM22.3215 1.37125V1.61125C22.3215 4.09125 21.3615 5.77125 18.7015 7.05125L19.3915 8.11125C22.6815 6.52125 23.6415 4.20125 23.6415 1.37125H22.3215ZM19.1915 1.37125V2.42125H22.9515V1.37125H19.1915ZM30.2198 3.07125H32.3698L34.3998 5.28125L32.3698 7.49125H30.2198L32.2598 5.28125L30.2198 3.07125Z" fill="#646A88"/>
</svg>
