<svg width="57" height="16" viewBox="0 0 57 16" fill="none" xmlns="http://www.w3.org/2000/svg">
<path fill-rule="evenodd" clip-rule="evenodd" d="M44.3253 0C48.7435 0 52.3253 3.58172 52.3253 8C52.3253 8.02301 52.3252 8.046 52.325 8.06897C52.3521 11.9951 54.6394 14.2655 55.6864 15.3047C56.1664 15.7812 56.3856 15.9988 56.0067 15.9986H44.4787C44.4277 15.9995 44.3765 16 44.3253 16H7.99889C3.58061 16 -0.00111019 12.4183 -0.00111019 8C-0.00111019 3.58172 3.5806 0 7.99888 0H44.3253Z" fill="white"/>
<path d="M30.5959 8.2096C30.7039 8.0216 30.8639 7.8656 31.0759 7.7416C31.2919 7.6136 31.5419 7.5496 31.8259 7.5496C32.1179 7.5496 32.3819 7.6196 32.6179 7.7596C32.8579 7.8996 33.0459 8.0976 33.1819 8.3536C33.3179 8.6056 33.3859 8.8996 33.3859 9.2356C33.3859 9.5676 33.3179 9.8636 33.1819 10.1236C33.0459 10.3836 32.8579 10.5856 32.6179 10.7296C32.3819 10.8736 32.1179 10.9456 31.8259 10.9456C31.5459 10.9456 31.2979 10.8836 31.0819 10.7596C30.8699 10.6316 30.7079 10.4736 30.5959 10.2856V12.4516H30.0499V7.6036H30.5959V8.2096ZM32.8279 9.2356C32.8279 8.9876 32.7779 8.7716 32.6779 8.5876C32.5779 8.4036 32.4419 8.2636 32.2699 8.1676C32.1019 8.0716 31.9159 8.0236 31.7119 8.0236C31.5119 8.0236 31.3259 8.0736 31.1539 8.1736C30.9859 8.2696 30.8499 8.4116 30.7459 8.5996C30.6459 8.7836 30.5959 8.9976 30.5959 9.2416C30.5959 9.4896 30.6459 9.7076 30.7459 9.8956C30.8499 10.0796 30.9859 10.2216 31.1539 10.3216C31.3259 10.4176 31.5119 10.4656 31.7119 10.4656C31.9159 10.4656 32.1019 10.4176 32.2699 10.3216C32.4419 10.2216 32.5779 10.0796 32.6779 9.8956C32.7779 9.7076 32.8279 9.4876 32.8279 9.2356ZM33.9006 9.2356C33.9006 8.8996 33.9686 8.6056 34.1046 8.3536C34.2406 8.0976 34.4266 7.8996 34.6626 7.7596C34.9026 7.6196 35.1686 7.5496 35.4606 7.5496C35.7486 7.5496 35.9986 7.6116 36.2106 7.7356C36.4226 7.8596 36.5806 8.0156 36.6846 8.2036V7.6036H37.2366V10.8916H36.6846V10.2796C36.5766 10.4716 36.4146 10.6316 36.1986 10.7596C35.9866 10.8836 35.7386 10.9456 35.4546 10.9456C35.1626 10.9456 34.8986 10.8736 34.6626 10.7296C34.4266 10.5856 34.2406 10.3836 34.1046 10.1236C33.9686 9.8636 33.9006 9.5676 33.9006 9.2356ZM36.6846 9.2416C36.6846 8.9936 36.6346 8.7776 36.5346 8.5936C36.4346 8.4096 36.2986 8.2696 36.1266 8.1736C35.9586 8.0736 35.7726 8.0236 35.5686 8.0236C35.3646 8.0236 35.1786 8.0716 35.0106 8.1676C34.8426 8.2636 34.7086 8.4036 34.6086 8.5876C34.5086 8.7716 34.4586 8.9876 34.4586 9.2356C34.4586 9.4876 34.5086 9.7076 34.6086 9.8956C34.7086 10.0796 34.8426 10.2216 35.0106 10.3216C35.1786 10.4176 35.3646 10.4656 35.5686 10.4656C35.7726 10.4656 35.9586 10.4176 36.1266 10.3216C36.2986 10.2216 36.4346 10.0796 36.5346 9.8956C36.6346 9.7076 36.6846 9.4896 36.6846 9.2416ZM39.5153 7.5496C39.7993 7.5496 40.0473 7.6116 40.2593 7.7356C40.4753 7.8596 40.6353 8.0156 40.7393 8.2036V7.6036H41.2913V10.9636C41.2913 11.2636 41.2273 11.5296 41.0993 11.7616C40.9713 11.9976 40.7873 12.1816 40.5473 12.3136C40.3113 12.4456 40.0353 12.5116 39.7193 12.5116C39.2873 12.5116 38.9273 12.4096 38.6393 12.2056C38.3513 12.0016 38.1813 11.7236 38.1293 11.3716H38.6693C38.7293 11.5716 38.8533 11.7316 39.0413 11.8516C39.2293 11.9756 39.4553 12.0376 39.7193 12.0376C40.0193 12.0376 40.2633 11.9436 40.4513 11.7556C40.6433 11.5676 40.7393 11.3036 40.7393 10.9636V10.2736C40.6313 10.4656 40.4713 10.6256 40.2593 10.7536C40.0473 10.8816 39.7993 10.9456 39.5153 10.9456C39.2233 10.9456 38.9573 10.8736 38.7173 10.7296C38.4813 10.5856 38.2953 10.3836 38.1593 10.1236C38.0233 9.8636 37.9553 9.5676 37.9553 9.2356C37.9553 8.8996 38.0233 8.6056 38.1593 8.3536C38.2953 8.0976 38.4813 7.8996 38.7173 7.7596C38.9573 7.6196 39.2233 7.5496 39.5153 7.5496ZM40.7393 9.2416C40.7393 8.9936 40.6893 8.7776 40.5893 8.5936C40.4893 8.4096 40.3533 8.2696 40.1813 8.1736C40.0133 8.0736 39.8273 8.0236 39.6233 8.0236C39.4193 8.0236 39.2333 8.0716 39.0653 8.1676C38.8973 8.2636 38.7633 8.4036 38.6633 8.5876C38.5633 8.7716 38.5133 8.9876 38.5133 9.2356C38.5133 9.4876 38.5633 9.7076 38.6633 9.8956C38.7633 10.0796 38.8973 10.2216 39.0653 10.3216C39.2333 10.4176 39.4193 10.4656 39.6233 10.4656C39.8273 10.4656 40.0133 10.4176 40.1813 10.3216C40.3533 10.2216 40.4893 10.0796 40.5893 9.8956C40.6893 9.7076 40.7393 9.4896 40.7393 9.2416ZM45.214 9.1216C45.214 9.2256 45.208 9.3356 45.196 9.4516H42.568C42.588 9.7756 42.698 10.0296 42.898 10.2136C43.102 10.3936 43.348 10.4836 43.636 10.4836C43.872 10.4836 44.068 10.4296 44.224 10.3216C44.384 10.2096 44.496 10.0616 44.56 9.8776H45.148C45.06 10.1936 44.884 10.4516 44.62 10.6516C44.356 10.8476 44.028 10.9456 43.636 10.9456C43.324 10.9456 43.044 10.8756 42.796 10.7356C42.552 10.5956 42.36 10.3976 42.22 10.1416C42.08 9.8816 42.01 9.5816 42.01 9.2416C42.01 8.9016 42.078 8.6036 42.214 8.3476C42.35 8.0916 42.54 7.8956 42.784 7.7596C43.032 7.6196 43.316 7.5496 43.636 7.5496C43.948 7.5496 44.224 7.6176 44.464 7.7536C44.704 7.8896 44.888 8.0776 45.016 8.3176C45.148 8.5536 45.214 8.8216 45.214 9.1216ZM44.65 9.0076C44.65 8.7996 44.604 8.6216 44.512 8.4736C44.42 8.3216 44.294 8.2076 44.134 8.1316C43.978 8.0516 43.804 8.0116 43.612 8.0116C43.336 8.0116 43.1 8.0996 42.904 8.2756C42.712 8.4516 42.602 8.6956 42.574 9.0076H44.65ZM47.0987 10.9456C46.8467 10.9456 46.6207 10.9036 46.4207 10.8196C46.2207 10.7316 46.0627 10.6116 45.9467 10.4596C45.8307 10.3036 45.7667 10.1256 45.7547 9.9256H46.3187C46.3347 10.0896 46.4107 10.2236 46.5467 10.3276C46.6867 10.4316 46.8687 10.4836 47.0927 10.4836C47.3007 10.4836 47.4647 10.4376 47.5847 10.3456C47.7047 10.2536 47.7647 10.1376 47.7647 9.9976C47.7647 9.8536 47.7007 9.7476 47.5727 9.6796C47.4447 9.6076 47.2467 9.5376 46.9787 9.4696C46.7347 9.4056 46.5347 9.3416 46.3787 9.2776C46.2267 9.2096 46.0947 9.1116 45.9827 8.9836C45.8747 8.8516 45.8207 8.6796 45.8207 8.4676C45.8207 8.2996 45.8707 8.1456 45.9707 8.0056C46.0707 7.8656 46.2127 7.7556 46.3967 7.6756C46.5807 7.5916 46.7907 7.5496 47.0267 7.5496C47.3907 7.5496 47.6847 7.6416 47.9087 7.8256C48.1327 8.0096 48.2527 8.2616 48.2687 8.5816H47.7227C47.7107 8.4096 47.6407 8.2716 47.5127 8.1676C47.3887 8.0636 47.2207 8.0116 47.0087 8.0116C46.8127 8.0116 46.6567 8.0536 46.5407 8.1376C46.4247 8.2216 46.3667 8.3316 46.3667 8.4676C46.3667 8.5756 46.4007 8.6656 46.4687 8.7376C46.5407 8.8056 46.6287 8.8616 46.7327 8.9056C46.8407 8.9456 46.9887 8.9916 47.1767 9.0436C47.4127 9.1076 47.6047 9.1716 47.7527 9.2356C47.9007 9.2956 48.0267 9.3876 48.1307 9.5116C48.2387 9.6356 48.2947 9.7976 48.2987 9.9976C48.2987 10.1776 48.2487 10.3396 48.1487 10.4836C48.0487 10.6276 47.9067 10.7416 47.7227 10.8256C47.5427 10.9056 47.3347 10.9456 47.0987 10.9456Z" fill="#303860"/>
</svg>
